<svg aria-hidden="true" style="position: absolute; width: 0; height: 0; overflow: hidden;" version="1.1" xmlns="http://www.w3.org/2000/svg" xmlns:xlink="http://www.w3.org/1999/xlink">
<defs>
<symbol id="icon-checked" viewBox="0 0 42 32">
<path fill="#fff" style="fill: var(--color1, #fff); stroke: var(--color1, #fff)" stroke="#fff" stroke-linejoin="miter" stroke-linecap="butt" stroke-miterlimit="4" stroke-width="0.64" d="M6.263 15.205l-0.22-0.21-3.307 3.132 11.651 11.114 24.477-23.351-3.285-3.134-21.192 20.197-8.124-7.75z"></path>
</symbol>
<symbol id="icon-checked-box" viewBox="0 0 34 32">
<path fill="#2196f3" style="fill: var(--color2, #2196f3)" d="M4.267 0h25.6c2.356 0 4.267 1.91 4.267 4.267v23.467c0 2.356-1.91 4.267-4.267 4.267h-25.6c-2.356 0-4.267-1.91-4.267-4.267v-23.467c0-2.356 1.91-4.267 4.267-4.267z"></path>
<path fill="#fff" style="fill: var(--color1, #fff); stroke: var(--color1, #fff)" stroke="#fff" stroke-linejoin="miter" stroke-linecap="butt" stroke-miterlimit="4" stroke-width="0.4267" d="M8.442 16.537l-0.147-0.14-2.205 2.088 7.767 7.41 16.318-15.567-2.19-2.089-14.128 13.465-5.416-5.167z"></path>
</symbol>
<symbol id="icon-email" viewBox="0 0 32 32">
<path d="M26.667 5.333h-21.333c-1.467 0-2.653 1.2-2.653 2.667l-0.013 16c0 1.467 1.2 2.667 2.667 2.667h21.333c1.467 0 2.667-1.2 2.667-2.667v-16c0-1.467-1.2-2.667-2.667-2.667zM26.133 11l-9.427 5.893c-0.427 0.267-0.987 0.267-1.413 0l-9.427-5.893c-0.333-0.213-0.533-0.573-0.533-0.96 0-0.893 0.973-1.427 1.733-0.96l8.933 5.587 8.933-5.587c0.76-0.467 1.733 0.067 1.733 0.96 0 0.387-0.2 0.747-0.533 0.96z"></path>
</symbol>
<symbol id="icon-person" viewBox="0 0 32 32">
<path d="M16 16c2.947 0 5.333-2.387 5.333-5.333s-2.387-5.333-5.333-5.333c-2.947 0-5.333 2.387-5.333 5.333s2.387 5.333 5.333 5.333zM16 18.667c-3.56 0-10.667 1.787-10.667 5.333v1.333c0 0.733 0.6 1.333 1.333 1.333h18.667c0.733 0 1.333-0.6 1.333-1.333v-1.333c0-3.547-7.107-5.333-10.667-5.333z"></path>
</symbol>
<symbol id="icon-phone" viewBox="0 0 32 32">
<path d="M24.882 19.773l-3.268-0.373c-0.785-0.090-1.557 0.18-2.11 0.733l-2.367 2.367c-3.641-1.853-6.626-4.825-8.478-8.478l2.38-2.38c0.553-0.553 0.823-1.325 0.733-2.11l-0.373-3.242c-0.154-1.299-1.248-2.277-2.56-2.277h-2.226c-1.454 0-2.663 1.209-2.573 2.663 0.682 10.987 9.469 19.761 20.443 20.443 1.454 0.090 2.663-1.119 2.663-2.573v-2.226c0.013-1.3-0.965-2.393-2.264-2.547z"></path>
</symbol>
<symbol id="icon-send-icon" viewBox="0 0 32 32">
<path fill="#fff" style="fill: var(--color1, #fff)" d="M32 0l-32 18 10.227 3.788 15.773-14.788-11.998 16.186 0.010 0.004-0.012-0.004v8.814l5.735-6.691 7.265 2.691 5-28z"></path>
</symbol>
<symbol id="icon-send-with-text" viewBox="0 0 139 32">
<path fill="#fff" style="fill: var(--color1, #fff)" d="M3.9 19.325h6.117v2.008h-9.242v-1.467l6-8.642h-5.992v-2.025h9.1v1.433l-5.983 8.692zM17.691 21.333c-0.111-0.217-0.192-0.486-0.242-0.808-0.583 0.65-1.342 0.975-2.275 0.975-0.883 0-1.617-0.255-2.2-0.767-0.578-0.511-0.867-1.156-0.867-1.933 0-0.956 0.353-1.689 1.058-2.2 0.711-0.511 1.736-0.77 3.075-0.775h1.108v-0.517c0-0.417-0.108-0.75-0.325-1-0.211-0.25-0.547-0.375-1.008-0.375-0.406 0-0.725 0.097-0.958 0.292-0.228 0.194-0.342 0.461-0.342 0.8h-2.408c0-0.522 0.161-1.006 0.483-1.45s0.778-0.792 1.367-1.042c0.589-0.256 1.25-0.383 1.983-0.383 1.111 0 1.992 0.281 2.642 0.842 0.655 0.556 0.983 1.339 0.983 2.35v3.908c0.006 0.856 0.125 1.503 0.358 1.942v0.142h-2.433zM15.699 19.658c0.356 0 0.683-0.078 0.983-0.233 0.3-0.161 0.522-0.375 0.667-0.642v-1.55h-0.9c-1.206 0-1.847 0.417-1.925 1.25l-0.008 0.142c0 0.3 0.105 0.547 0.317 0.742s0.5 0.292 0.867 0.292zM30.757 16.908c0 1.389-0.317 2.503-0.95 3.342-0.628 0.833-1.478 1.25-2.55 1.25-0.911 0-1.647-0.317-2.208-0.95v4.25h-2.408v-12.483h2.233l0.083 0.883c0.583-0.7 1.344-1.050 2.283-1.050 1.111 0 1.975 0.411 2.592 1.233s0.925 1.956 0.925 3.4v0.125zM28.348 16.733c0-0.839-0.15-1.486-0.45-1.942-0.294-0.456-0.725-0.683-1.292-0.683-0.756 0-1.275 0.289-1.558 0.867v3.692c0.294 0.594 0.819 0.892 1.575 0.892 1.15 0 1.725-0.942 1.725-2.825zM35.822 21.333h-2.417v-9.017h2.417v9.017zM33.264 9.983c0-0.361 0.119-0.658 0.358-0.892 0.244-0.233 0.575-0.35 0.992-0.35 0.411 0 0.739 0.117 0.983 0.35s0.367 0.531 0.367 0.892c0 0.367-0.125 0.667-0.375 0.9-0.244 0.233-0.569 0.35-0.975 0.35s-0.733-0.117-0.983-0.35c-0.244-0.233-0.367-0.533-0.367-0.9zM43.721 18.842c0-0.294-0.147-0.525-0.442-0.692-0.289-0.172-0.756-0.325-1.4-0.458-2.144-0.45-3.217-1.361-3.217-2.733 0-0.8 0.331-1.467 0.992-2 0.667-0.539 1.536-0.808 2.608-0.808 1.144 0 2.058 0.269 2.742 0.808 0.689 0.539 1.033 1.239 1.033 2.1h-2.408c0-0.344-0.111-0.628-0.333-0.85-0.222-0.228-0.569-0.342-1.042-0.342-0.406 0-0.719 0.092-0.942 0.275s-0.333 0.417-0.333 0.7c0 0.267 0.125 0.483 0.375 0.65 0.256 0.161 0.683 0.303 1.283 0.425 0.6 0.117 1.106 0.25 1.517 0.4 1.272 0.467 1.908 1.275 1.908 2.425 0 0.822-0.353 1.489-1.058 2-0.706 0.506-1.617 0.758-2.733 0.758-0.756 0-1.428-0.133-2.017-0.4-0.583-0.272-1.042-0.642-1.375-1.108-0.333-0.472-0.5-0.981-0.5-1.525h2.283c0.022 0.428 0.18 0.756 0.475 0.983s0.689 0.342 1.183 0.342c0.461 0 0.808-0.086 1.042-0.258 0.239-0.178 0.358-0.408 0.358-0.692zM51.412 19.392h4.408v1.942h-7.483v-1.467l4.242-5.6h-4.117v-1.95h7.225v1.425l-4.275 5.65zM68.51 18.842c0-0.294-0.147-0.525-0.442-0.692-0.289-0.172-0.756-0.325-1.4-0.458-2.145-0.45-3.217-1.361-3.217-2.733 0-0.8 0.331-1.467 0.992-2 0.667-0.539 1.536-0.808 2.608-0.808 1.145 0 2.058 0.269 2.742 0.808 0.689 0.539 1.033 1.239 1.033 2.1h-2.408c0-0.344-0.111-0.628-0.333-0.85-0.222-0.228-0.57-0.342-1.042-0.342-0.406 0-0.719 0.092-0.942 0.275s-0.333 0.417-0.333 0.7c0 0.267 0.125 0.483 0.375 0.65 0.256 0.161 0.683 0.303 1.283 0.425 0.6 0.117 1.106 0.25 1.517 0.4 1.272 0.467 1.908 1.275 1.908 2.425 0 0.822-0.353 1.489-1.058 2-0.706 0.506-1.617 0.758-2.733 0.758-0.756 0-1.428-0.133-2.017-0.4-0.583-0.272-1.042-0.642-1.375-1.108-0.333-0.472-0.5-0.981-0.5-1.525h2.283c0.022 0.428 0.181 0.756 0.475 0.983s0.689 0.342 1.183 0.342c0.461 0 0.808-0.086 1.042-0.258 0.239-0.178 0.358-0.408 0.358-0.692zM75.976 21.333h-2.417v-9.017h2.417v9.017zM73.417 9.983c0-0.361 0.119-0.658 0.358-0.892 0.244-0.233 0.575-0.35 0.992-0.35 0.411 0 0.739 0.117 0.983 0.35s0.367 0.531 0.367 0.892c0 0.367-0.125 0.667-0.375 0.9-0.244 0.233-0.569 0.35-0.975 0.35s-0.733-0.117-0.983-0.35c-0.244-0.233-0.367-0.533-0.367-0.9zM86.658 19.875c-0.344 0.506-0.836 0.906-1.475 1.2h0.008c-0.411 0.233-0.728 0.461-0.95 0.683-0.222 0.228-0.333 0.489-0.333 0.783 0 0.361 0.183 0.542 0.55 0.542 0.183 0 0.406-0.056 0.667-0.167l0.242 1.308c-0.406 0.244-0.864 0.367-1.375 0.367-0.556 0-1.011-0.156-1.367-0.467-0.35-0.306-0.525-0.731-0.525-1.275 0-0.539 0.175-0.997 0.525-1.375-1.189-0.105-2.147-0.556-2.875-1.35-0.722-0.8-1.083-1.819-1.083-3.058v-0.258c0-0.905 0.175-1.714 0.525-2.425 0.35-0.717 0.844-1.267 1.483-1.65 0.644-0.389 1.378-0.583 2.2-0.583 1.233 0 2.203 0.389 2.908 1.167 0.711 0.778 1.067 1.881 1.067 3.308v0.983h-5.742c0.078 0.589 0.311 1.061 0.7 1.417 0.394 0.356 0.892 0.533 1.492 0.533 0.928 0 1.653-0.336 2.175-1.008l1.183 1.325zM82.866 14.1c-0.478 0-0.867 0.161-1.167 0.483-0.294 0.322-0.483 0.783-0.567 1.383h3.35v-0.192c-0.011-0.533-0.156-0.945-0.433-1.233-0.278-0.294-0.672-0.442-1.183-0.442z"></path>
<path fill="#fff" style="fill: var(--color1, #fff)" d="M138.667 3.2l-25.6 14.4 8.181 3.030 12.619-11.83-9.598 12.949 0.007 0.003-0.010-0.003v7.051l4.588-5.353 5.812 2.153 4-22.4z"></path>
</symbol>
</defs>
</svg>
